<?xml version="1.0" standalone="no"?>
<!DOCTYPE svg PUBLIC "-//W3C//DTD SVG 20010904//EN"
 "http://www.w3.org/TR/2001/REC-SVG-20010904/DTD/svg10.dtd">
<svg version="1.0" xmlns="http://www.w3.org/2000/svg"
 width="2134.000000pt" height="2134.000000pt" viewBox="0 0 2134.000000 2134.000000"
 preserveAspectRatio="xMidYMid meet">
<metadata>
Created by potrace 1.11, written by Peter Selinger 2001-2013
</metadata>
<g transform="translate(0.000000,2134.000000) scale(0.100000,-0.100000)"
fill="#000000" stroke="none">
<path d="M0 10675 l0 -10665 10665 0 10665 0 0 10665 0 10665 -10665 0 -10665
0 0 -10665z m12600 8305 c768 -29 1073 -69 1474 -190 424 -128 953 -361 1142
-503 124 -93 294 -268 445 -457 284 -356 345 -452 413 -649 131 -376 139 -937
21 -1311 -84 -263 -262 -526 -505 -746 -205 -186 -471 -376 -740 -529 -189
-107 -678 -350 -977 -485 -139 -63 -251 -116 -249 -118 7 -7 922 -222 944
-222 27 0 654 -214 972 -332 375 -139 704 -282 1163 -508 245 -120 370 -193
778 -452 400 -255 518 -341 1034 -753 571 -457 866 -735 1183 -1115 254 -305
506 -679 645 -956 72 -143 213 -473 255 -596 173 -503 197 -1116 72 -1838 -36
-206 -80 -392 -116 -487 -68 -183 -201 -401 -403 -663 -207 -269 -363 -393
-718 -573 -884 -448 -1541 -548 -4073 -622 -2173 -63 -3383 -158 -4592 -361
-1634 -273 -3121 -625 -4453 -1054 -786 -253 -1212 -430 -1505 -626 -308 -206
-954 -682 -1185 -873 -60 -50 -121 -94 -134 -98 -89 -23 -145 110 -106 253 53
198 532 772 925 1110 615 530 1248 915 1996 1214 1207 483 3598 1056 5484
1314 1067 146 1998 206 3930 251 1796 42 2568 90 3080 191 422 83 839 233
1065 383 87 57 227 195 285 280 133 197 251 557 253 771 1 165 -60 350 -161
489 -68 92 -120 180 -262 446 -241 450 -395 660 -735 1001 -285 286 -780 702
-1305 1097 -210 159 -223 167 -795 509 -732 438 -848 500 -1070 578 -66 23
-248 92 -405 152 -793 306 -1133 411 -1780 552 -695 152 -1394 251 -2111 301
l-97 7 -11 -53 c-123 -564 -335 -1615 -461 -2284 -50 -264 -111 -583 -136
-710 -61 -314 -117 -646 -154 -915 -17 -124 -60 -398 -95 -610 -105 -630 -123
-790 -130 -1165 -3 -143 -10 -309 -16 -370 -21 -226 -85 -472 -179 -692 -105
-243 -219 -368 -423 -463 -140 -65 -197 -75 -407 -74 -168 0 -194 3 -285 27
-146 39 -281 109 -400 208 -138 113 -478 457 -609 614 -211 254 -389 506 -560
794 -126 212 -671 1165 -1266 2216 -437 772 -538 943 -609 1034 l-18 24 -35
-59 c-43 -72 -83 -171 -102 -255 -39 -168 -97 -662 -121 -1024 -9 -132 -34
-490 -55 -795 -22 -305 -47 -663 -57 -795 -13 -192 -17 -401 -18 -1045 -1
-734 -3 -812 -19 -885 -58 -261 -197 -417 -472 -531 -144 -59 -265 -86 -389
-87 -219 -1 -388 67 -710 284 -194 131 -283 205 -465 388 -220 221 -330 362
-522 671 -56 91 -197 314 -313 495 -116 182 -244 383 -284 448 -72 115 -109
157 -139 157 -8 0 -85 -71 -171 -158 -176 -178 -309 -287 -522 -432 -209 -140
-365 -210 -544 -241 -226 -39 -447 114 -496 342 -19 90 -5 177 71 434 266 898
423 1324 664 1805 150 299 254 459 348 537 111 91 234 133 394 133 139 0 228
-24 399 -109 276 -137 527 -321 771 -565 314 -315 497 -564 1286 -1753 238
-359 436 -653 441 -653 15 0 114 240 171 415 79 244 118 436 196 970 28 193
65 422 81 510 17 88 39 205 49 260 28 151 48 323 70 605 11 140 25 302 30 360
13 154 30 624 39 1120 7 419 8 437 30 493 65 165 251 316 461 373 106 29 299
25 425 -10 309 -84 564 -236 829 -495 478 -468 957 -1138 1586 -2221 101 -173
289 -493 418 -709 309 -520 405 -687 525 -921 56 -107 111 -205 124 -217 28
-29 81 -30 116 -3 57 45 209 285 273 431 96 218 141 393 263 1019 93 476 125
649 301 1625 113 627 215 1148 296 1520 73 332 214 986 214 991 0 2 -100 4
-222 4 -227 0 -389 -9 -646 -35 -220 -23 -308 -2 -396 95 -49 54 -91 145 -112
239 -13 58 -15 104 -11 210 11 267 103 513 270 719 61 76 141 142 208 171 57
25 246 48 514 61 292 15 345 24 596 106 l135 44 37 212 c20 117 54 330 77 473
22 143 63 404 90 580 100 634 120 763 144 960 32 248 53 497 62 723 l7 172
-45 0 c-68 0 -300 -19 -433 -36 -97 -12 -157 -27 -310 -79 -104 -35 -219 -71
-255 -80 -130 -30 -406 -12 -481 31 -18 11 -48 43 -65 72 -44 73 -58 150 -51
285 9 175 63 339 171 519 233 387 501 598 889 698 291 75 529 90 1067 70z"/>
<path d="M12424 17496 c-2 -6 -15 -117 -29 -246 -15 -129 -46 -370 -70 -535
-24 -165 -48 -352 -54 -415 -6 -63 -18 -194 -26 -290 -9 -96 -25 -240 -36
-320 -19 -137 -144 -950 -170 -1108 -7 -40 -9 -75 -6 -79 15 -14 1650 504
2207 699 549 192 912 369 1245 608 170 122 238 188 277 268 28 56 33 77 32
134 0 60 -6 78 -48 165 -74 147 -163 232 -435 412 -300 200 -357 226 -826 394
-344 122 -464 160 -625 197 -272 62 -532 92 -945 109 -403 17 -487 18 -491 7z"/>
</g>
</svg>
