<?xml version="1.0" standalone="no"?>
<!DOCTYPE svg PUBLIC "-//W3C//DTD SVG 20010904//EN"
 "http://www.w3.org/TR/2001/REC-SVG-20010904/DTD/svg10.dtd">
<svg version="1.0" xmlns="http://www.w3.org/2000/svg"
 width="2028.000000pt" height="2028.000000pt" viewBox="0 0 2028.000000 2028.000000"
 preserveAspectRatio="xMidYMid meet">
<metadata>
Created by potrace 1.11, written by Peter Selinger 2001-2013
</metadata>
<g transform="translate(0.000000,2028.000000) scale(0.100000,-0.100000)"
fill="#000000" stroke="none">
<path d="M11488 18695 c-3 -2 -23 -5 -158 -21 -25 -2 -54 -7 -66 -9 -12 -3
-39 -7 -60 -11 -82 -13 -224 -53 -325 -93 -288 -113 -514 -316 -705 -637 -61
-103 -136 -275 -148 -340 -2 -16 -7 -40 -10 -54 -44 -197 -6 -402 88 -473 38
-30 50 -33 166 -50 119 -17 223 -15 339 8 13 2 116 36 230 74 182 61 241 76
341 86 14 2 50 6 80 9 86 9 156 15 272 21 l106 6 -4 -138 c-5 -200 -22 -446
-39 -588 -10 -78 -15 -124 -20 -170 -3 -27 -8 -60 -10 -72 -3 -12 -7 -41 -10
-65 -3 -24 -7 -59 -10 -78 -3 -19 -8 -53 -10 -75 -3 -22 -7 -47 -10 -55 -2 -8
-7 -40 -10 -70 -3 -30 -8 -62 -10 -70 -2 -8 -7 -33 -10 -55 -3 -23 -7 -50 -9
-60 -2 -11 -9 -56 -16 -100 -7 -44 -14 -89 -16 -100 -2 -11 -7 -38 -9 -60 -3
-22 -10 -62 -15 -90 -5 -27 -12 -69 -15 -92 -11 -81 -14 -98 -20 -138 -3 -22
-8 -53 -11 -70 -3 -16 -9 -55 -14 -85 -5 -30 -12 -73 -15 -95 -8 -56 -35 -235
-41 -265 -2 -14 -9 -54 -14 -90 -6 -36 -13 -78 -16 -95 -3 -16 -7 -43 -10 -60
-2 -16 -6 -41 -9 -55 -3 -14 -12 -68 -21 -120 -9 -52 -21 -100 -28 -107 -14
-15 -246 -88 -356 -113 -103 -23 -153 -29 -290 -35 -134 -6 -284 -15 -335 -21
-22 -2 -62 -6 -90 -9 -145 -16 -221 -50 -309 -139 -179 -179 -296 -429 -330
-705 -26 -207 1 -358 86 -486 50 -75 84 -102 162 -131 52 -19 78 -22 157 -19
52 2 105 6 119 9 22 4 113 13 220 21 156 13 625 23 634 14 3 -2 -2 -34 -9 -70
-8 -36 -16 -77 -18 -90 -3 -13 -10 -42 -15 -64 -6 -22 -13 -53 -15 -70 -3 -16
-10 -52 -17 -80 -6 -27 -13 -59 -16 -69 -2 -11 -15 -72 -29 -136 -14 -64 -27
-125 -29 -136 -13 -59 -39 -182 -43 -199 -3 -11 -8 -36 -13 -55 -11 -48 -147
-708 -153 -745 -10 -54 -28 -148 -47 -245 -16 -78 -41 -217 -74 -405 -3 -16
-8 -41 -11 -55 -3 -14 -10 -52 -15 -85 -5 -33 -12 -71 -15 -85 -3 -14 -21
-113 -40 -220 -19 -107 -37 -207 -40 -222 -7 -40 -12 -67 -20 -113 -4 -22 -13
-71 -20 -110 -8 -38 -16 -86 -19 -105 -5 -33 -9 -51 -21 -110 -3 -14 -7 -43
-11 -65 -3 -22 -9 -56 -14 -75 -5 -19 -12 -55 -15 -78 -3 -24 -21 -121 -40
-215 -19 -95 -36 -183 -38 -197 -3 -14 -8 -36 -11 -50 -3 -14 -8 -36 -10 -50
-4 -22 -27 -140 -41 -210 -3 -14 -12 -61 -21 -105 -8 -44 -17 -90 -20 -103
-26 -132 -104 -392 -149 -497 -67 -157 -235 -430 -292 -475 -38 -29 -88 -26
-119 8 -14 15 -51 77 -81 137 -64 128 -132 255 -179 338 -19 32 -34 60 -34 61
0 6 -137 238 -357 606 -110 184 -259 436 -330 560 -109 187 -271 463 -380 645
-27 45 -187 302 -203 325 -5 8 -63 94 -127 191 -143 214 -209 307 -326 464
-77 102 -278 354 -312 391 -5 7 -32 38 -60 70 -375 442 -724 683 -1127 778
-397 94 -804 -117 -874 -455 -2 -13 -6 -193 -9 -399 -7 -668 -20 -998 -50
-1290 -3 -25 -7 -83 -10 -130 -3 -47 -7 -105 -10 -130 -2 -25 -7 -74 -10 -110
-4 -36 -8 -81 -10 -100 -2 -19 -7 -62 -10 -95 -3 -33 -7 -69 -9 -80 -2 -11 -7
-40 -11 -65 -11 -71 -14 -94 -19 -115 -10 -45 -46 -233 -52 -269 -6 -40 -10
-63 -19 -106 -3 -14 -7 -41 -9 -60 -2 -19 -9 -62 -15 -95 -5 -33 -13 -80 -16
-105 -3 -25 -8 -56 -10 -70 -2 -14 -7 -45 -10 -70 -3 -25 -8 -56 -10 -70 -2
-14 -7 -43 -10 -65 -5 -39 -22 -145 -30 -195 -2 -14 -7 -41 -10 -60 -3 -19
-14 -80 -25 -135 -11 -55 -22 -110 -25 -122 -16 -86 -110 -397 -140 -468 -8
-16 -34 -77 -58 -135 -25 -57 -49 -105 -54 -106 -4 -2 -207 297 -451 664 -244
367 -472 710 -508 762 -232 337 -385 547 -525 715 -110 132 -359 381 -484 484
-230 190 -592 397 -760 435 -236 53 -446 0 -601 -152 -87 -85 -205 -280 -345
-570 -80 -165 -186 -407 -230 -526 -17 -44 -35 -90 -40 -101 -5 -11 -16 -40
-25 -65 -9 -25 -36 -101 -60 -170 -53 -148 -213 -653 -229 -720 -2 -8 -28
-100 -59 -203 -65 -220 -66 -225 -67 -297 0 -184 108 -342 282 -411 170 -67
435 2 723 188 83 53 309 222 381 285 61 53 216 206 273 270 79 90 113 86 177
-18 53 -86 222 -355 235 -374 33 -47 266 -413 370 -580 66 -107 126 -204 133
-214 7 -11 15 -25 20 -30 4 -6 40 -56 80 -111 176 -241 403 -476 632 -653 152
-118 390 -265 516 -319 164 -71 342 -96 485 -68 151 29 340 104 444 176 173
119 249 241 290 464 17 91 18 160 17 785 -1 603 5 950 17 1100 2 25 7 90 11
145 3 55 8 127 10 160 9 121 16 231 20 280 2 28 6 86 9 130 3 44 8 107 11 140
3 33 7 92 10 130 4 77 13 209 20 295 2 30 7 105 10 165 4 61 8 130 10 153 3
24 7 92 10 150 3 59 8 114 10 122 3 8 7 51 10 95 3 44 8 87 10 95 2 8 7 44 10
80 4 36 8 76 10 90 12 84 15 110 20 150 4 25 8 56 10 70 2 14 6 45 10 70 19
129 66 265 129 373 l28 47 49 -64 c49 -66 139 -208 139 -221 0 -4 8 -19 19
-33 10 -15 88 -151 173 -302 86 -151 165 -291 176 -310 11 -19 66 -116 122
-215 56 -99 172 -304 257 -455 254 -449 900 -1575 981 -1710 102 -170 362
-550 402 -590 3 -3 36 -43 74 -90 136 -169 255 -300 421 -460 137 -133 142
-138 289 -263 58 -50 185 -116 288 -151 161 -54 324 -71 503 -53 77 8 42 -2
-130 -38 -44 -9 -100 -21 -125 -27 -63 -13 -82 -17 -105 -22 -11 -2 -38 -9
-60 -14 -22 -6 -53 -14 -70 -17 -65 -13 -82 -17 -145 -31 -36 -9 -73 -17 -84
-19 -10 -3 -56 -14 -102 -25 -47 -12 -97 -24 -112 -26 -15 -3 -35 -7 -44 -10
-9 -3 -25 -7 -35 -9 -498 -114 -1387 -361 -1873 -521 -107 -35 -202 -66 -210
-68 -31 -8 -289 -103 -345 -127 -11 -4 -60 -24 -110 -44 -49 -20 -99 -40 -110
-45 -11 -5 -42 -19 -70 -30 -367 -157 -743 -363 -1090 -599 -148 -100 -168
-115 -340 -246 -440 -336 -745 -634 -1048 -1025 -84 -108 -178 -250 -205 -308
-22 -47 -27 -72 -27 -142 0 -72 4 -91 23 -123 25 -39 56 -53 95 -43 13 3 73
46 133 96 60 50 188 150 284 223 96 73 181 137 190 144 43 34 340 250 470 342
166 117 401 267 490 313 94 49 361 168 376 168 3 0 20 7 37 15 134 62 800 285
1342 450 178 55 714 206 845 240 130 33 629 158 640 160 8 2 33 8 55 14 22 5
54 12 70 15 17 3 55 12 85 20 43 11 271 63 490 111 8 2 35 8 60 14 25 5 56 12
70 15 14 2 81 16 150 31 69 14 136 29 149 31 322 64 442 88 611 118 354 65
468 85 500 91 19 3 85 14 145 25 61 10 128 21 150 25 22 3 78 12 125 20 47 8
105 17 130 20 25 3 70 10 100 15 30 5 78 12 105 15 28 3 61 8 75 10 14 3 48 7
75 10 28 3 64 8 80 10 17 2 53 7 80 10 28 3 64 8 80 10 17 2 57 7 90 10 33 4
71 8 85 10 14 2 54 7 90 10 36 3 83 8 105 11 82 9 122 13 190 19 39 4 81 8 95
10 29 4 165 16 230 20 79 5 214 16 250 20 19 2 82 7 140 10 58 3 130 8 160 10
30 2 89 7 130 10 41 3 120 7 175 10 55 3 136 7 180 9 278 16 446 24 635 31 80
3 184 8 232 10 49 3 170 7 270 10 101 3 248 8 328 10 80 2 237 7 350 10 113 3
261 8 330 10 69 3 195 7 280 10 234 8 505 20 685 30 213 12 291 18 450 30 33
3 96 7 140 10 44 4 94 8 110 10 17 2 66 7 110 10 44 4 94 8 110 10 17 2 75 9
130 15 55 6 111 13 124 15 13 2 45 7 70 11 61 8 75 10 146 23 33 6 74 13 90
16 116 20 162 29 250 52 55 14 111 27 123 29 64 12 334 102 467 156 186 75
572 269 685 344 203 134 300 234 533 548 149 200 265 414 321 589 33 102 95
390 112 512 3 28 7 52 9 55 2 3 6 34 10 70 4 36 9 73 11 84 2 10 6 51 10 90 3
39 8 82 11 96 9 47 11 585 3 675 -11 107 -19 171 -25 205 -3 14 -7 41 -9 60
-3 19 -9 55 -15 80 -5 25 -12 56 -15 70 -21 102 -88 320 -121 395 -8 17 -48
109 -91 205 -75 172 -154 334 -213 437 -167 291 -430 652 -694 948 -109 122
-418 428 -552 545 -164 143 -364 310 -445 370 -18 14 -38 30 -44 35 -6 6 -31
26 -56 46 -25 19 -99 78 -165 131 -322 255 -497 378 -895 628 -151 94 -286
180 -300 189 -90 62 -554 296 -850 428 -381 171 -668 283 -1120 438 -124 42
-234 80 -245 85 -63 27 -274 94 -304 97 -20 2 -72 13 -116 24 -44 10 -89 21
-100 23 -11 3 -69 17 -130 31 -60 15 -119 29 -130 31 -11 2 -74 17 -140 33
-66 16 -171 42 -233 57 -62 15 -111 28 -110 30 2 1 50 23 108 49 58 26 128 57
155 70 28 12 77 35 110 50 259 115 673 325 880 444 44 25 88 51 97 56 205 116
507 348 693 531 259 255 437 577 480 869 4 22 8 47 10 55 30 111 26 589 -6
775 -51 290 -139 492 -314 715 -161 205 -176 225 -193 245 -9 11 -39 47 -66
80 -142 171 -283 304 -420 396 -160 106 -655 323 -980 428 -214 69 -441 125
-596 146 -25 3 -52 8 -60 10 -8 2 -40 7 -70 10 -30 3 -62 8 -70 10 -8 2 -53 7
-100 10 -47 4 -103 9 -125 11 -37 3 -96 6 -415 20 -140 6 -777 14 -782 9z
m777 -1490 c121 -3 243 -8 270 -10 28 -1 103 -6 167 -10 65 -3 128 -8 140 -10
13 -2 54 -6 92 -10 38 -4 79 -8 90 -10 12 -2 55 -9 96 -15 220 -34 404 -78
580 -139 754 -260 823 -290 1135 -499 285 -190 369 -269 443 -418 72 -143 58
-270 -44 -383 -71 -79 -277 -229 -474 -345 -63 -37 -122 -72 -130 -77 -18 -11
-299 -149 -350 -172 -258 -114 -915 -339 -1770 -607 -91 -28 -248 -78 -350
-110 -102 -32 -268 -84 -370 -115 -102 -31 -198 -60 -213 -65 -15 -5 -26 -6
-23 -2 2 4 7 28 11 52 3 25 10 68 15 95 14 73 19 102 30 186 6 41 12 84 14 95
2 10 7 39 10 64 3 25 8 54 10 65 3 18 12 73 21 135 6 40 15 93 20 120 2 14 7
45 10 70 6 43 8 59 19 125 6 38 16 104 21 147 2 18 6 49 9 68 13 89 16 114 41
370 2 25 7 83 10 130 5 85 13 162 20 210 2 14 9 61 15 104 7 44 14 93 16 110
5 42 25 176 30 201 2 11 9 58 14 105 6 47 13 99 15 115 2 17 6 50 9 75 4 25 8
70 11 100 3 30 7 71 10 90 2 19 7 62 10 95 4 33 11 65 16 72 6 6 27 10 47 8
20 -2 136 -7 257 -10z m-825 -4751 c41 -3 93 -7 115 -9 52 -5 166 -15 230 -21
74 -6 156 -14 192 -19 17 -3 71 -9 120 -15 157 -18 178 -21 193 -25 8 -2 42
-7 75 -11 33 -3 62 -8 65 -9 3 -2 33 -6 65 -10 33 -3 67 -8 76 -11 9 -3 34 -7
55 -9 22 -3 50 -7 64 -10 48 -10 75 -15 165 -30 50 -9 180 -34 290 -56 110
-22 213 -43 229 -46 24 -4 381 -86 426 -98 8 -2 67 -17 130 -33 125 -33 200
-55 470 -137 63 -19 435 -151 465 -165 11 -5 81 -32 155 -60 74 -28 144 -54
155 -59 11 -5 56 -23 100 -39 44 -16 89 -33 100 -37 11 -5 22 -9 25 -10 3 -1
22 -9 44 -18 21 -9 41 -17 44 -17 3 0 69 -23 146 -51 160 -58 229 -92 476
-235 275 -159 337 -195 465 -274 66 -40 129 -78 140 -84 11 -6 99 -59 195
-116 96 -58 180 -107 185 -109 28 -11 293 -194 404 -278 294 -224 753 -597
956 -777 44 -39 98 -87 120 -106 79 -69 334 -327 412 -417 213 -244 353 -454
533 -798 117 -224 190 -347 256 -435 119 -158 177 -385 150 -584 -19 -139 -86
-353 -157 -504 -109 -233 -281 -406 -521 -528 -148 -74 -382 -162 -586 -219
-93 -25 -374 -89 -444 -99 -21 -3 -53 -8 -70 -11 -46 -7 -97 -15 -138 -20 -19
-3 -48 -7 -65 -10 -16 -2 -66 -7 -110 -11 -44 -3 -87 -7 -95 -9 -8 -2 -55 -6
-105 -10 -49 -3 -112 -8 -140 -10 -65 -6 -185 -13 -310 -20 -55 -3 -134 -7
-175 -10 -41 -3 -138 -7 -215 -10 -77 -3 -174 -8 -215 -10 -41 -2 -158 -7
-260 -10 -102 -3 -250 -8 -330 -10 -80 -3 -246 -7 -370 -10 -124 -3 -306 -7
-405 -10 -99 -2 -292 -7 -430 -10 -137 -3 -306 -8 -375 -10 -69 -2 -201 -7
-295 -10 -291 -9 -534 -20 -700 -30 -38 -2 -126 -7 -195 -10 -69 -4 -141 -8
-160 -10 -19 -2 -89 -6 -154 -10 -66 -3 -133 -8 -150 -10 -17 -2 -67 -7 -111
-10 -44 -3 -105 -7 -135 -10 -30 -3 -80 -7 -110 -9 -104 -9 -195 -17 -219 -21
-14 -3 -63 -7 -110 -11 -47 -3 -93 -7 -101 -9 -8 -2 -49 -6 -90 -10 -41 -3
-82 -8 -90 -10 -8 -2 -44 -7 -80 -10 -36 -4 -76 -8 -90 -10 -107 -15 -127 -18
-235 -31 -38 -4 -91 -11 -145 -19 -14 -2 -74 -11 -135 -20 -60 -8 -135 -20
-165 -25 -30 -5 -72 -11 -92 -14 -21 -4 -55 -9 -75 -12 -53 -7 -434 -72 -459
-78 -12 -2 -39 -7 -60 -10 -22 -3 -50 -8 -64 -11 -32 -6 -76 -14 -119 -21 -18
-3 -43 -7 -55 -10 -11 -2 -70 -13 -131 -24 -95 -18 -224 -44 -276 -55 -9 -2
-33 -6 -53 -9 -20 -3 -55 -10 -78 -16 -74 -17 -76 -9 -3 10 67 17 141 48 214
90 39 22 139 101 161 127 92 109 127 168 188 314 49 115 110 303 128 394 49
245 55 308 60 620 2 138 6 273 8 300 3 28 7 82 11 120 3 39 8 86 10 105 2 19
7 58 10 85 4 28 8 61 10 75 2 14 7 45 10 70 3 25 9 59 11 75 3 17 7 39 9 50 8
58 20 131 56 345 47 280 46 274 54 325 3 23 7 50 9 60 2 11 7 43 10 70 4 28 9
61 11 75 5 29 22 165 30 230 3 25 7 52 10 60 2 8 6 37 10 64 3 27 8 52 9 55 2
3 7 29 10 56 9 67 30 182 66 365 24 122 26 136 40 210 10 56 16 86 25 130 3
14 10 48 15 75 5 28 27 147 50 265 23 118 43 226 45 240 1 14 10 59 18 100 9
41 18 89 21 105 3 17 8 41 11 55 2 14 7 36 9 50 3 14 19 95 36 180 16 85 32
164 34 175 3 17 18 91 21 105 1 3 5 25 9 50 5 25 10 54 13 65 5 23 3 14 48
235 19 91 36 176 39 190 2 14 17 81 31 150 15 69 29 136 32 150 3 14 18 86 33
160 16 74 31 146 34 160 2 14 18 91 35 171 17 81 31 150 31 153 0 4 35 5 78 2
42 -4 111 -9 152 -12z"/>
</g>
</svg>
